<svg xmlns="http://www.w3.org/2000/svg" xmlns:xlink="http://www.w3.org/1999/xlink" width="3300" height="2200" viewBox="0 0 3300 2200">
  <defs>
    <clipPath id="clip-Settings_Apple_Custom_SVG">
      <rect width="3300" height="2200"/>
    </clipPath>
  </defs>
  <g id="Settings_Apple_Custom_SVG" data-name="Settings Apple Custom SVG" clip-path="url(#clip-Settings_Apple_Custom_SVG)">
    <rect width="3300" height="2200" fill="#fff"/>
    <g id="xmark.circle.fill" transform="translate(1 1)">
      <g id="Notes">
        <rect id="artboard" width="3300" height="2200" fill="#fff"/>
        <line id="Line_1" data-name="Line 1" x2="2773" transform="translate(263 292)" fill="none" stroke="#000" stroke-width="0.5"/>
        <text id="Weight_Scale_Variations" data-name="Weight/Scale Variations" transform="translate(263 322)" font-size="20" font-family="Helvetica-Bold, Helvetica" font-weight="700"><tspan x="0" y="0">Weight/Scale Variations</tspan></text>
        <text id="Ultralight" transform="translate(559.711 322)" font-size="20" font-family="Helvetica"><tspan x="-39.458" y="0">Ultralight</tspan></text>
        <text id="Thin" transform="translate(856.422 322)" font-size="20" font-family="Helvetica"><tspan x="-19.453" y="0">Thin</tspan></text>
        <text id="Light" transform="translate(1153.13 322)" font-size="20" font-family="Helvetica"><tspan x="-21.685" y="0">Light</tspan></text>
        <text id="Regular" transform="translate(1449.84 322)" font-size="20" font-family="Helvetica"><tspan x="-35.02" y="0">Regular</tspan></text>
        <text id="Medium" transform="translate(1746.56 322)" font-size="20" font-family="Helvetica"><tspan x="-35.566" y="0">Medium</tspan></text>
        <text id="Semibold" transform="translate(2043.27 322)" font-size="20" font-family="Helvetica"><tspan x="-41.689" y="0">Semibold</tspan></text>
        <text id="Bold" transform="translate(2339.98 322)" font-size="20" font-family="Helvetica"><tspan x="-20.015" y="0">Bold</tspan></text>
        <text id="Heavy" transform="translate(2636.69 322)" font-size="20" font-family="Helvetica"><tspan x="-28.345" y="0">Heavy</tspan></text>
        <text id="Black" transform="translate(2933.4 322)" font-size="20" font-family="Helvetica"><tspan x="-24.453" y="0">Black</tspan></text>
        <line id="Line_2" data-name="Line 2" x2="2773" transform="translate(263 1903)" fill="none" stroke="#000" stroke-width="0.5"/>
        <g id="Group_1" data-name="Group 1" transform="translate(263 1933)">
          <path id="Path_1" data-name="Path 1" d="M9.248.83a7.949,7.949,0,0,0,7.891-7.881,7.957,7.957,0,0,0-7.9-7.881A7.938,7.938,0,0,0,1.367-7.051,7.947,7.947,0,0,0,9.248.83Zm0-1.484a6.358,6.358,0,0,1-6.377-6.4,6.35,6.35,0,0,1,6.367-6.4,6.383,6.383,0,0,1,6.406,6.4A6.362,6.362,0,0,1,9.248-.654Zm-.02-2.773c.469,0,.742-.312.742-.83V-6.318H12.2c.5,0,.84-.254.84-.723s-.322-.742-.84-.742H9.971V-10.01c0-.517-.273-.84-.742-.84s-.723.342-.723.84v2.227H6.3c-.518,0-.85.264-.85.742s.352.723.85.723H8.506v2.061C8.506-3.76,8.76-3.428,9.229-3.428Z"/>
        </g>
        <g id="Group_2" data-name="Group 2" transform="translate(281.506 1933)">
          <path id="Path_2" data-name="Path 2" d="M11.709,2.91A10.028,10.028,0,0,0,21.67-7.051,10.043,10.043,0,0,0,11.7-17.012,10.033,10.033,0,0,0,1.748-7.051,10.035,10.035,0,0,0,11.709,2.91Zm0-1.66a8.261,8.261,0,0,1-8.291-8.3,8.259,8.259,0,0,1,8.281-8.3,8.29,8.29,0,0,1,8.311,8.3A8.263,8.263,0,0,1,11.709,1.25Zm-.019-3.662a.819.819,0,0,0,.83-.928V-6.23h3.057c.547,0,.928-.283.928-.8a.814.814,0,0,0-.928-.83H12.519v-3.066a.814.814,0,0,0-.83-.928c-.518,0-.811.371-.811.928v3.066H7.832a.822.822,0,0,0-.937.83c0,.518.391.8.938.8h3.047V-3.34C10.879-2.793,11.172-2.412,11.689-2.412Z"/>
        </g>
        <g id="Group_3" data-name="Group 3" transform="translate(304.924 1933)">
          <path id="Path_3" data-name="Path 3" d="M14.971,5.674A12.8,12.8,0,0,0,27.7-7.041,12.808,12.808,0,0,0,14.961-19.756,12.79,12.79,0,0,0,2.256-7.041,12.8,12.8,0,0,0,14.971,5.674Zm0-1.816A10.87,10.87,0,0,1,4.082-7.041a10.861,10.861,0,0,1,10.879-10.9,10.886,10.886,0,0,1,10.908,10.9A10.865,10.865,0,0,1,14.971,3.857Zm-.02-4.922a.894.894,0,0,0,.918-1V-6.133h4.238a.9.9,0,0,0,1.006-.889.893.893,0,0,0-1.006-.918H15.869v-4.248a.9.9,0,0,0-.918-1.006.886.886,0,0,0-.889,1.006v4.248H9.834a.909.909,0,0,0-1.025.918.908.908,0,0,0,1.025.889h4.229v4.072A.883.883,0,0,0,14.951-1.064Z"/>
        </g>
        <text id="Design_Variations" data-name="Design Variations" transform="translate(263 1953)" font-size="20" font-family="Helvetica-Bold, Helvetica" font-weight="700"><tspan x="0" y="0">Design Variations</tspan></text>
        <text id="Symbols_are_supported_in_up_to_nine_weights_and_three_scales." data-name="Symbols are supported in up to nine weights and three scales." transform="translate(263 1971)" font-size="20" font-family="Helvetica"><tspan x="0" y="0">Symbols are supported in up to nine weights and three scales.</tspan></text>
        <text id="For_optimal_layout_with_text_and_other_symbols_vertically_align" data-name="For optimal layout with text and other symbols, vertically align" transform="translate(263 1989)" font-size="20" font-family="Helvetica"><tspan x="0" y="0">For optimal layout with text and other symbols, vertically align</tspan></text>
        <text id="symbols_with_the_adjacent_text." data-name="symbols with the adjacent text." transform="translate(263 2007)" font-size="20" font-family="Helvetica"><tspan x="0" y="0">symbols with the adjacent text.</tspan></text>
        <rect id="Rectangle_1" data-name="Rectangle 1" width="3" height="14" transform="translate(776 1919)" fill="#00aeef" opacity="0.4"/>
        <g id="Group_4" data-name="Group 4" transform="translate(779 1933)">
          <path id="Path_4" data-name="Path 4" d="M10.527,0h1.846l-5.2-14.092H5.439L.244,0H2.09L3.506-4.033H9.111ZM6.279-11.953h.059L8.594-5.527H4.023Z"/>
        </g>
        <rect id="Rectangle_2" data-name="Rectangle 2" width="3" height="14" transform="translate(791.617 1919)" fill="#00aeef" opacity="0.4"/>
        <text id="Margins" transform="translate(776 1953)" font-size="20" font-family="Helvetica-Bold, Helvetica" font-weight="700"><tspan x="0" y="0">Margins</tspan></text>
        <text id="Leading_and_trailing_margins_on_the_left_and_right_side_of_each_symbol" data-name="Leading and trailing margins on the left and right side of each symbol" transform="translate(776 1971)" font-size="20" font-family="Helvetica"><tspan x="0" y="0">Leading and trailing margins on the left and right side of each symbol</tspan></text>
        <text id="can_be_adjusted_by_modifying_the_width_of_the_blue_rectangles." data-name="can be adjusted by modifying the width of the blue rectangles." transform="translate(776 1989)" font-size="20" font-family="Helvetica"><tspan x="0" y="0">can be adjusted by modifying the width of the blue rectangles.</tspan></text>
        <text id="Modifications_are_automatically_applied_proportionally_to_all" data-name="Modifications are automatically applied proportionally to all" transform="translate(776 2007)" font-size="20" font-family="Helvetica"><tspan x="0" y="0">Modifications are automatically applied proportionally to all</tspan></text>
        <text id="scales_and_weights." data-name="scales and weights." transform="translate(776 2025)" font-size="20" font-family="Helvetica"><tspan x="0" y="0">scales and weights.</tspan></text>
        <g id="Group_5" data-name="Group 5" transform="translate(1289 1933)">
          <path id="Path_5" data-name="Path 5" d="M2.832,3.115,4.375,4.658a1.69,1.69,0,0,0,2.686-.2L17.275-6.66a1.515,1.515,0,0,0,1.289.186l1.045-.215L20.3-6l-.049.518a1.612,1.612,0,0,0,.6,1.445l.811.811a1.1,1.1,0,0,0,1.641.059l3.252-3.252A1.1,1.1,0,0,0,26.5-8.057l-.82-.82a1.58,1.58,0,0,0-1.445-.6l-.527.059-.654-.664.283-1.143a1.564,1.564,0,0,0-.625-1.641L20.3-15.254c-3.545-3.525-8.076-3.418-11.191-.283a1.159,1.159,0,0,0-.2,1.445,1.17,1.17,0,0,0,1.357.43,5.328,5.328,0,0,1,4.512.742l-.625,1.582a1.683,1.683,0,0,0,.019,1.5L3.018.439A1.673,1.673,0,0,0,2.832,3.115Zm7.842-18.262a6.173,6.173,0,0,1,8.379.732l2.627,2.608a.671.671,0,0,1,.205.713L21.5-9.531l1.572,1.572.967-.088a.565.565,0,0,1,.6.215l.625.625L22.51-4.463l-.625-.615a.58.58,0,0,1-.215-.605l.088-.957L20.2-8.2l-1.621.313a.577.577,0,0,1-.664-.186l-2.178-2.178a.526.526,0,0,1-.127-.693l.947-2.275A5.826,5.826,0,0,0,10.8-14.951a.163.163,0,0,1-.186-.029C10.586-15.029,10.586-15.078,10.674-15.146ZM4.1,2.412c-.488-.5-.312-.8.02-1.1L15.078-8.809l1.23,1.23L6.152,3.35a.67.67,0,0,1-1.084.029Z"/>
        </g>
        <text id="Exporting" transform="translate(1289 1953)" font-size="20" font-family="Helvetica-Bold, Helvetica" font-weight="700"><tspan x="0" y="0">Exporting</tspan></text>
        <text id="Symbols_should_be_outlined_when_exporting_to_ensure_the" data-name="Symbols should be outlined when exporting to ensure the" transform="translate(1289 1971)" font-size="20" font-family="Helvetica"><tspan x="0" y="0">Symbols should be outlined when exporting to ensure the</tspan></text>
        <text id="design_is_preserved_when_submitting_to_Xcode." data-name="design is preserved when submitting to Xcode." transform="translate(1289 1989)" font-size="20" font-family="Helvetica"><tspan x="0" y="0">design is preserved when submitting to Xcode.</tspan></text>
        <text id="template-version" transform="translate(3036 1933)" font-size="20" font-family="Helvetica"><tspan x="-128.594" y="0">Template v.1.0</tspan></text>
        <text id="Generated_from_xmark.circle.fill" data-name="Generated from xmark.circle.fill" transform="translate(3036 1951)" font-size="20" font-family="Helvetica"><tspan x="-276.738" y="0">Generated from xmark.circle.fill</tspan></text>
        <text id="Typeset_at_100_points" data-name="Typeset at 100 points" transform="translate(3036 1969)" font-size="20" font-family="Helvetica"><tspan x="-190.137" y="0">Typeset at 100 points</tspan></text>
        <text id="Small" transform="translate(263 726)" font-size="20" font-family="Helvetica"><tspan x="0" y="0">Small</tspan></text>
        <text id="Medium-2" data-name="Medium" transform="translate(263 1156)" font-size="20" font-family="Helvetica"><tspan x="0" y="0">Medium</tspan></text>
        <text id="Large" transform="translate(263 1586)" font-size="20" font-family="Helvetica"><tspan x="0" y="0">Large</tspan></text>
      </g>
      <g id="Guides">
        <g id="H-reference" transform="translate(339 696)">
          <path id="Path_6" data-name="Path 6" d="M54.932,0h2.734l-27.1-70.459h-2.49L.977,0H3.662l9.277-24.463H45.7ZM29.2-67.09h.244L44.824-26.709H13.818Z" fill="#27aae1"/>
        </g>
        <line id="Baseline-S" x2="2773" transform="translate(263 696)" fill="none" stroke="#27aae1" stroke-width="0.577"/>
        <line id="Capline-S" x2="2773" transform="translate(263 625.541)" fill="none" stroke="#27aae1" stroke-width="0.577"/>
        <g id="H-reference-2" data-name="H-reference" transform="translate(339 1126)">
          <path id="Path_7" data-name="Path 7" d="M54.932,0h2.734l-27.1-70.459h-2.49L.977,0H3.662l9.277-24.463H45.7ZM29.2-67.09h.244L44.824-26.709H13.818Z" fill="#27aae1"/>
        </g>
        <line id="Baseline-M" x2="2773" transform="translate(263 1126)" fill="none" stroke="#27aae1" stroke-width="0.577"/>
        <line id="Capline-M" x2="2773" transform="translate(263 1055.54)" fill="none" stroke="#27aae1" stroke-width="0.577"/>
        <g id="H-reference-3" data-name="H-reference" transform="translate(339 1556)">
          <path id="Path_8" data-name="Path 8" d="M54.932,0h2.734l-27.1-70.459h-2.49L.977,0H3.662l9.277-24.463H45.7ZM29.2-67.09h.244L44.824-26.709H13.818Z" fill="#27aae1"/>
        </g>
        <line id="Baseline-L" x2="2773" transform="translate(263 1556)" fill="none" stroke="#27aae1" stroke-width="0.577"/>
        <line id="Capline-L" x2="2773" transform="translate(263 1485.54)" fill="none" stroke="#27aae1" stroke-width="0.577"/>
        <rect id="left-margin" width="8.74" height="119.336" transform="translate(1391.3 1030.79)" fill="#00aeef" opacity="0.4"/>
        <rect id="right-margin" width="8.74" height="119.336" transform="translate(1499.65 1030.79)" fill="#00aeef" opacity="0.4"/>
      </g>
      <g id="Symbols">
        <g id="Ultralight-S" transform="translate(522.48 623.64)">
          <path id="Path_36" data-name="Path 36" d="M0,0H74.46V74.41H0Z" fill="none"/>
          <path id="Path_37" data-name="Path 37" d="M67.947,42.851a28.2,28.2,0,0,0,.268-3.646,28.2,28.2,0,0,0-.268-3.646l8.076-6.139a1.842,1.842,0,0,0,.459-2.381L68.827,14.166a1.95,1.95,0,0,0-2.335-.819l-9.53,3.72a28.167,28.167,0,0,0-6.468-3.646L49.039,3.563A1.851,1.851,0,0,0,47.164,2H31.854a1.851,1.851,0,0,0-1.875,1.563l-1.454,9.859a29.62,29.62,0,0,0-6.468,3.646l-9.53-3.72a1.892,1.892,0,0,0-2.335.819L2.536,27.039A1.8,1.8,0,0,0,3,29.42l8.076,6.139A28.7,28.7,0,0,0,10.8,39.2a28.7,28.7,0,0,0,.268,3.646L3,48.99a1.842,1.842,0,0,0-.459,2.381l7.655,12.873a1.95,1.95,0,0,0,2.335.819l9.53-3.72a28.167,28.167,0,0,0,6.468,3.646l1.454,9.859a1.851,1.851,0,0,0,1.875,1.563h15.31a1.851,1.851,0,0,0,1.875-1.563l1.454-9.859a29.62,29.62,0,0,0,6.468-3.646l9.53,3.72a1.892,1.892,0,0,0,2.335-.819l7.655-12.873a1.842,1.842,0,0,0-.459-2.381ZM39.509,52.227A13.227,13.227,0,0,1,26.113,39.2a13.4,13.4,0,0,1,26.792,0A13.227,13.227,0,0,1,39.509,52.227Z" transform="translate(-2.271 -2)"/>
        </g>
        <g id="Regular-M" transform="translate(1400.04 1040.94)">
          <path id="Path_36-2" data-name="Path 36" d="M0,0H99.61V99.61H0Z" fill="none"/>
          <path id="Path_37-2" data-name="Path 37" d="M90.13,56.686a37.772,37.772,0,0,0,.358-4.881,37.773,37.773,0,0,0-.358-4.881l10.8-8.218a2.467,2.467,0,0,0,.614-3.188L91.308,18.286a2.608,2.608,0,0,0-3.123-1.1l-12.749,4.98a37.674,37.674,0,0,0-8.653-4.881l-1.946-13.2A2.476,2.476,0,0,0,62.327,2H41.847a2.476,2.476,0,0,0-2.509,2.092l-1.946,13.2a39.618,39.618,0,0,0-8.653,4.881L15.989,17.191a2.53,2.53,0,0,0-3.123,1.1L2.626,35.519a2.411,2.411,0,0,0,.614,3.188l10.8,8.218a38.439,38.439,0,0,0-.358,4.881,38.439,38.439,0,0,0,.358,4.881L3.24,64.9a2.467,2.467,0,0,0-.614,3.188l10.24,17.233a2.608,2.608,0,0,0,3.123,1.1l12.749-4.98a37.674,37.674,0,0,0,8.653,4.881l1.946,13.2a2.476,2.476,0,0,0,2.509,2.092H62.327a2.476,2.476,0,0,0,2.509-2.092l1.946-13.2a39.618,39.618,0,0,0,8.653-4.881l12.749,4.98a2.53,2.53,0,0,0,3.123-1.1l10.24-17.233a2.467,2.467,0,0,0-.614-3.188ZM52.087,69.237A17.7,17.7,0,0,1,34.166,51.8a17.928,17.928,0,0,1,35.842,0A17.7,17.7,0,0,1,52.087,69.237Z" transform="translate(-2.271 -2)"/>
        </g>
        <g id="Medium-M" transform="translate(1696.04 1040.26)">
          <path id="Path_36-3" data-name="Path 36" d="M0,0H101.03V101.03H0Z" fill="none"/>
          <path id="Path_37-3" data-name="Path 37" d="M91.383,57.465a38.31,38.31,0,0,0,.364-4.95,38.311,38.311,0,0,0-.364-4.95L102.34,39.23A2.5,2.5,0,0,0,102.963,36L92.577,18.518a2.646,2.646,0,0,0-3.168-1.111L76.478,22.459a38.211,38.211,0,0,0-8.777-4.95L65.728,4.122A2.511,2.511,0,0,0,63.184,2H42.411a2.511,2.511,0,0,0-2.545,2.122L37.893,17.508a40.182,40.182,0,0,0-8.777,4.95L16.185,17.407a2.566,2.566,0,0,0-3.168,1.111L2.631,36a2.446,2.446,0,0,0,.623,3.233l10.958,8.335a38.987,38.987,0,0,0-.364,4.95,38.987,38.987,0,0,0,.364,4.95L3.254,65.8a2.5,2.5,0,0,0-.623,3.233L13.017,86.512a2.646,2.646,0,0,0,3.168,1.111l12.931-5.051a38.211,38.211,0,0,0,8.777,4.95l1.973,13.386a2.511,2.511,0,0,0,2.545,2.122H63.184a2.511,2.511,0,0,0,2.545-2.122L67.7,87.522a40.182,40.182,0,0,0,8.777-4.95l12.931,5.051a2.566,2.566,0,0,0,3.168-1.111l10.386-17.478a2.5,2.5,0,0,0-.623-3.233ZM52.8,70.2a17.953,17.953,0,0,1-18.176-17.68,18.183,18.183,0,0,1,36.352,0A17.953,17.953,0,0,1,52.8,70.2Z" transform="translate(-2.271 -2)"/>
        </g>
        <g id="Light-M" transform="translate(1104.16 1041.82)">
          <path id="Path_36-4" data-name="Path 36" d="M0,0H97.95V97.95H0Z" fill="none"/>
          <path id="Path_37-4" data-name="Path 37" d="M88.666,55.775a37.143,37.143,0,0,0,.352-4.8,37.145,37.145,0,0,0-.352-4.8L99.29,38.095a2.426,2.426,0,0,0,.6-3.134L89.824,18.015a2.565,2.565,0,0,0-3.071-1.077l-12.537,4.9a37.046,37.046,0,0,0-8.509-4.8L63.794,4.057A2.435,2.435,0,0,0,61.327,2H41.187A2.435,2.435,0,0,0,38.72,4.057L36.807,17.035a38.957,38.957,0,0,0-8.509,4.8l-12.537-4.9a2.488,2.488,0,0,0-3.071,1.077L2.62,34.96a2.371,2.371,0,0,0,.6,3.134l10.624,8.081a37.8,37.8,0,0,0-.352,4.8,37.8,37.8,0,0,0,.352,4.8L3.224,63.855a2.426,2.426,0,0,0-.6,3.134L12.69,83.935a2.565,2.565,0,0,0,3.071,1.077l12.537-4.9a37.047,37.047,0,0,0,8.509,4.8L38.72,97.893a2.435,2.435,0,0,0,2.467,2.057h20.14a2.435,2.435,0,0,0,2.467-2.057l1.913-12.978a38.958,38.958,0,0,0,8.509-4.8l12.537,4.9a2.488,2.488,0,0,0,3.071-1.077L99.894,66.99a2.426,2.426,0,0,0-.6-3.134ZM51.257,68.116A17.406,17.406,0,0,1,33.635,50.975a17.629,17.629,0,0,1,35.244,0A17.406,17.406,0,0,1,51.257,68.116Z" transform="translate(-2.271 -2)"/>
        </g>
        <g id="Thin-M" transform="translate(808.55 1042.94)">
          <path id="Path_36-5" data-name="Path 36" d="M0,0H95.75V95.8H0Z" fill="none"/>
          <path id="Path_37-5" data-name="Path 37" d="M86.725,54.594A36.347,36.347,0,0,0,87.07,49.9a36.348,36.348,0,0,0-.345-4.694L97.11,37.3a2.373,2.373,0,0,0,.591-3.066L87.858,17.663a2.507,2.507,0,0,0-3-1.054L72.6,21.4a36.209,36.209,0,0,0-8.318-4.694L62.412,4.012A2.38,2.38,0,0,0,60,2H40.313A2.38,2.38,0,0,0,37.9,4.012l-1.87,12.693A38.077,38.077,0,0,0,27.713,21.4l-12.255-4.79a2.432,2.432,0,0,0-3,1.054L2.612,34.237A2.32,2.32,0,0,0,3.2,37.3l10.385,7.9a36.988,36.988,0,0,0-.345,4.694,36.988,36.988,0,0,0,.345,4.694L3.2,62.5a2.373,2.373,0,0,0-.591,3.066l9.844,16.573a2.507,2.507,0,0,0,3,1.054L27.713,78.4a36.209,36.209,0,0,0,8.318,4.694L37.9,95.788A2.38,2.38,0,0,0,40.313,97.8H60a2.38,2.38,0,0,0,2.412-2.012l1.87-12.693A38.077,38.077,0,0,0,72.6,78.4l12.255,4.79a2.432,2.432,0,0,0,3-1.054L97.7,65.563A2.373,2.373,0,0,0,97.11,62.5ZM50.157,66.665A17.019,17.019,0,0,1,32.93,49.9a17.233,17.233,0,0,1,34.453,0A17.019,17.019,0,0,1,50.157,66.665Z" transform="translate(-2.271 -2)"/>
        </g>
        <g id="Ultralight-M" transform="translate(512.4 1043.53)">
          <path id="Path_36-6" data-name="Path 36" d="M0,0H94.63V94.68H0Z" fill="none"/>
          <path id="Path_37-6" data-name="Path 37" d="M85.738,53.979a35.922,35.922,0,0,0,.34-4.639,35.924,35.924,0,0,0-.34-4.639L96,36.89a2.345,2.345,0,0,0,.584-3.03L86.856,17.48a2.477,2.477,0,0,0-2.967-1.041L71.777,21.173a35.786,35.786,0,0,0-8.221-4.639L61.708,3.988A2.353,2.353,0,0,0,59.325,2H39.868a2.353,2.353,0,0,0-2.383,1.988L35.636,16.533a37.632,37.632,0,0,0-8.221,4.639L15.3,16.439a2.4,2.4,0,0,0-2.967,1.041L2.608,33.86a2.293,2.293,0,0,0,.584,3.03L13.455,44.7a36.556,36.556,0,0,0-.34,4.639,36.555,36.555,0,0,0,.34,4.639L3.192,61.79a2.345,2.345,0,0,0-.584,3.03L12.336,81.2A2.477,2.477,0,0,0,15.3,82.241l12.112-4.734a35.786,35.786,0,0,0,8.221,4.639l1.848,12.545a2.353,2.353,0,0,0,2.383,1.988H59.325a2.353,2.353,0,0,0,2.383-1.988l1.848-12.545a37.632,37.632,0,0,0,8.221-4.639l12.112,4.734A2.4,2.4,0,0,0,86.856,81.2l9.728-16.38A2.345,2.345,0,0,0,96,61.79ZM49.6,65.909A16.82,16.82,0,0,1,32.572,49.34a17.031,17.031,0,0,1,34.05,0A16.82,16.82,0,0,1,49.6,65.909Z" transform="translate(-2.271 -2)"/>
        </g>
        <g id="Semibold-M" transform="translate(1992.24 1039.72)">
          <path id="Path_36-7" data-name="Path 36" d="M0,0H102.05V102.1H0Z" fill="none"/>
          <path id="Path_37-7" data-name="Path 37" d="M92.282,58.053a38.734,38.734,0,0,0,.367-5,38.736,38.736,0,0,0-.367-5l11.068-8.423a2.529,2.529,0,0,0,.629-3.267L93.489,18.693a2.672,2.672,0,0,0-3.2-1.123l-13.062,5.1a38.592,38.592,0,0,0-8.865-5L66.369,4.144A2.537,2.537,0,0,0,63.8,2H42.816a2.537,2.537,0,0,0-2.57,2.144L38.252,17.672a40.583,40.583,0,0,0-8.865,5l-13.062-5.1a2.592,2.592,0,0,0-3.2,1.123L2.634,36.357a2.472,2.472,0,0,0,.629,3.267l11.068,8.423a39.419,39.419,0,0,0-.367,5,39.419,39.419,0,0,0,.367,5L3.264,66.476a2.529,2.529,0,0,0-.629,3.267L13.126,87.407a2.672,2.672,0,0,0,3.2,1.123l13.062-5.1a38.592,38.592,0,0,0,8.865,5l1.993,13.528a2.537,2.537,0,0,0,2.57,2.144H63.8a2.537,2.537,0,0,0,2.57-2.144l1.993-13.528a40.583,40.583,0,0,0,8.865-5l13.062,5.1a2.592,2.592,0,0,0,3.2-1.123L103.98,69.743a2.529,2.529,0,0,0-.629-3.267ZM53.307,70.917A18.139,18.139,0,0,1,34.947,53.05a18.367,18.367,0,0,1,36.719,0A18.139,18.139,0,0,1,53.307,70.917Z" transform="translate(-2.271 -2)"/>
        </g>
        <g id="Bold-M" transform="translate(2288.24 1039.04)">
          <path id="Path_36-8" data-name="Path 36" d="M0,0H103.47V103.47H0Z" fill="none"/>
          <path id="Path_37-8" data-name="Path 37" d="M93.535,58.8a39.236,39.236,0,0,0,.372-5.07,39.237,39.237,0,0,0-.372-5.07l11.222-8.536a2.562,2.562,0,0,0,.638-3.311l-10.637-17.9a2.709,2.709,0,0,0-3.244-1.138L78.27,22.953a39.134,39.134,0,0,0-8.988-5.07L67.261,4.173A2.572,2.572,0,0,0,64.655,2H43.38a2.572,2.572,0,0,0-2.606,2.173l-2.021,13.71a41.153,41.153,0,0,0-8.988,5.07L16.521,17.779a2.628,2.628,0,0,0-3.244,1.138L2.639,36.818a2.5,2.5,0,0,0,.638,3.311L14.5,48.665a39.928,39.928,0,0,0-.372,5.07A39.928,39.928,0,0,0,14.5,58.8L3.278,67.341a2.562,2.562,0,0,0-.638,3.311l10.637,17.9a2.709,2.709,0,0,0,3.244,1.138l13.243-5.174a39.134,39.134,0,0,0,8.988,5.07l2.021,13.71a2.572,2.572,0,0,0,2.606,2.173H64.655a2.572,2.572,0,0,0,2.606-2.173l2.021-13.71a41.153,41.153,0,0,0,8.988-5.07l13.243,5.174a2.628,2.628,0,0,0,3.244-1.138l10.637-17.9a2.562,2.562,0,0,0-.638-3.311ZM54.017,71.842A18.387,18.387,0,0,1,35.4,53.735a18.622,18.622,0,0,1,37.23,0A18.387,18.387,0,0,1,54.017,71.842Z" transform="translate(-2.271 -2)"/>
        </g>
        <g id="Heavy-M" transform="translate(2583.93 1038.01)">
          <path id="Path_36-9" data-name="Path 36" d="M0,0H105.52V105.52H0Z" fill="none"/>
          <path id="Path_37-9" data-name="Path 37" d="M95.343,59.93a40.013,40.013,0,0,0,.38-5.17,40.014,40.014,0,0,0-.38-5.17l11.445-8.705a2.613,2.613,0,0,0,.651-3.377L96.59,19.253a2.763,2.763,0,0,0-3.309-1.161L79.776,23.368a39.91,39.91,0,0,0-9.167-5.17L68.548,4.216A2.623,2.623,0,0,0,65.891,2h-21.7a2.623,2.623,0,0,0-2.658,2.216L39.476,18.2a41.968,41.968,0,0,0-9.167,5.17L16.8,18.092a2.68,2.68,0,0,0-3.309,1.161L2.647,37.507A2.554,2.554,0,0,0,3.3,40.884l11.445,8.705a40.719,40.719,0,0,0-.38,5.17,40.719,40.719,0,0,0,.38,5.17L3.3,68.636a2.613,2.613,0,0,0-.651,3.377L13.495,90.267A2.763,2.763,0,0,0,16.8,91.428l13.506-5.276a39.909,39.909,0,0,0,9.167,5.17L41.537,105.3a2.623,2.623,0,0,0,2.658,2.216h21.7a2.623,2.623,0,0,0,2.658-2.216l2.061-13.981a41.969,41.969,0,0,0,9.167-5.17l13.506,5.276a2.68,2.68,0,0,0,3.309-1.161l10.848-18.255a2.613,2.613,0,0,0-.651-3.377Zm-40.3,13.3c-10.468,0-18.984-8.283-18.984-18.466s8.516-18.466,18.984-18.466S74.027,44.577,74.027,54.76,65.511,73.226,55.043,73.226Z" transform="translate(-2.271 -2)"/>
        </g>
        <g id="Black-M" transform="translate(2879.71 1037.13)">
          <path id="Path_36-10" data-name="Path 36" d="M0,0H107.37V107.32H0Z" fill="none"/>
          <path id="Path_37-10" data-name="Path 37" d="M96.975,60.919a40.676,40.676,0,0,0,.386-5.259,40.677,40.677,0,0,0-.386-5.259l11.645-8.854a2.657,2.657,0,0,0,.662-3.434L98.244,19.547a2.812,2.812,0,0,0-3.367-1.181L81.135,23.732a40.614,40.614,0,0,0-9.327-5.259l-2.1-14.22A2.669,2.669,0,0,0,67.006,2H44.93a2.669,2.669,0,0,0-2.7,2.254l-2.1,14.22A42.709,42.709,0,0,0,30.8,23.732L17.058,18.366a2.728,2.728,0,0,0-3.367,1.181L2.653,38.113a2.6,2.6,0,0,0,.662,3.434L14.961,50.4a41.4,41.4,0,0,0-.386,5.259,41.4,41.4,0,0,0,.386,5.259L3.316,69.773a2.657,2.657,0,0,0-.662,3.434L13.692,91.773a2.812,2.812,0,0,0,3.367,1.181L30.8,87.588a40.614,40.614,0,0,0,9.327,5.259l2.1,14.22a2.669,2.669,0,0,0,2.7,2.254H67.006a2.669,2.669,0,0,0,2.7-2.254l2.1-14.22a42.71,42.71,0,0,0,9.327-5.259l13.743,5.366a2.728,2.728,0,0,0,3.367-1.181l11.038-18.566a2.657,2.657,0,0,0-.662-3.434ZM55.968,74.441c-10.652,0-19.317-8.425-19.317-18.781s8.665-18.781,19.317-18.781S75.285,45.3,75.285,55.66,66.62,74.441,55.968,74.441Z" transform="translate(-2.271 -2)"/>
        </g>
        <g id="Regular-L" transform="translate(1386.25 1456.54)">
          <path id="Path_36-11" data-name="Path 36" d="M0,0H127.2V127.15H0Z" fill="none"/>
          <path id="Path_37-11" data-name="Path 37" d="M114.465,71.805a48.2,48.2,0,0,0,.458-6.23,48.2,48.2,0,0,0-.458-6.23l13.8-10.49a3.148,3.148,0,0,0,.785-4.069l-13.077-22a3.331,3.331,0,0,0-3.988-1.4L95.7,27.748a48.115,48.115,0,0,0-11.05-6.23L82.166,4.67A3.162,3.162,0,0,0,78.962,2H52.808a3.161,3.161,0,0,0-3.2,2.67L47.12,21.518a50.6,50.6,0,0,0-11.05,6.23L19.789,21.39a3.232,3.232,0,0,0-3.988,1.4l-13.077,22a3.077,3.077,0,0,0,.785,4.069l13.8,10.49a49.047,49.047,0,0,0-.458,6.23,49.047,49.047,0,0,0,.458,6.23L3.509,82.3a3.148,3.148,0,0,0-.785,4.069l13.077,22a3.331,3.331,0,0,0,3.988,1.4L36.07,103.4a48.114,48.114,0,0,0,11.05,6.23L49.6,126.48a3.161,3.161,0,0,0,3.2,2.67H78.962a3.161,3.161,0,0,0,3.2-2.67l2.485-16.847A50.6,50.6,0,0,0,95.7,103.4l16.281,6.357a3.232,3.232,0,0,0,3.988-1.4l13.077-22a3.148,3.148,0,0,0-.785-4.069ZM65.885,87.826C53.266,87.826,43,77.845,43,65.575S53.266,43.324,65.885,43.324,88.77,53.305,88.77,65.575,78.5,87.826,65.885,87.826Z" transform="translate(-2.271 -2)"/>
        </g>
        <g id="Medium-L" transform="translate(1682.15 1455.86)">
          <path id="Path_36-12" data-name="Path 36" d="M0,0H128.81V128.81H0Z" fill="none"/>
          <path id="Path_37-12" data-name="Path 37" d="M115.886,72.717a48.844,48.844,0,0,0,.463-6.312,48.847,48.847,0,0,0-.463-6.312l13.971-10.627a3.19,3.19,0,0,0,.795-4.122L117.408,23.06a3.373,3.373,0,0,0-4.039-1.417l-16.487,6.44a48.718,48.718,0,0,0-11.19-6.312L83.177,4.705A3.2,3.2,0,0,0,79.933,2H53.448A3.2,3.2,0,0,0,50.2,4.705L47.687,21.772A51.231,51.231,0,0,0,36.5,28.084l-16.487-6.44a3.272,3.272,0,0,0-4.039,1.417L2.73,45.345a3.118,3.118,0,0,0,.795,4.122L17.495,60.093a49.707,49.707,0,0,0-.463,6.312,49.707,49.707,0,0,0,.463,6.312L3.524,83.343a3.19,3.19,0,0,0-.795,4.122L15.972,109.75a3.373,3.373,0,0,0,4.039,1.417l16.487-6.44a48.718,48.718,0,0,0,11.19,6.312L50.2,128.1a3.2,3.2,0,0,0,3.244,2.705H79.933a3.2,3.2,0,0,0,3.244-2.705l2.516-17.067a51.231,51.231,0,0,0,11.19-6.312l16.487,6.44a3.272,3.272,0,0,0,4.039-1.417l13.242-22.284a3.19,3.19,0,0,0-.795-4.122Zm-49.2,16.23c-12.779,0-23.174-10.112-23.174-22.542s10.4-22.542,23.174-22.542S89.864,53.975,89.864,66.4,79.469,88.947,66.69,88.947Z" transform="translate(-2.271 -2)"/>
        </g>
        <g id="Light-L" transform="translate(1090.46 1457.42)">
          <path id="Path_36-13" data-name="Path 36" d="M0,0H125.34V125.34H0Z" fill="none"/>
          <path id="Path_37-13" data-name="Path 37" d="M112.825,70.812a47.529,47.529,0,0,0,.451-6.142,47.532,47.532,0,0,0-.451-6.142l13.594-10.341a3.1,3.1,0,0,0,.773-4.011L114.307,22.493a3.282,3.282,0,0,0-3.93-1.379L94.334,27.381A47.406,47.406,0,0,0,83.446,21.24L81,4.632A3.116,3.116,0,0,0,77.84,2H52.069a3.116,3.116,0,0,0-3.157,2.632L46.464,21.24a49.851,49.851,0,0,0-10.888,6.142L19.533,21.114a3.184,3.184,0,0,0-3.93,1.379L2.717,44.177a3.034,3.034,0,0,0,.773,4.011L17.085,58.528a48.368,48.368,0,0,0-.451,6.142,48.368,48.368,0,0,0,.451,6.142L3.49,81.152a3.1,3.1,0,0,0-.773,4.011L15.6,106.847a3.282,3.282,0,0,0,3.93,1.379l16.043-6.267A47.405,47.405,0,0,0,46.464,108.1l2.448,16.608a3.116,3.116,0,0,0,3.157,2.632H77.84A3.116,3.116,0,0,0,81,124.708L83.446,108.1a49.851,49.851,0,0,0,10.888-6.142l16.043,6.267a3.184,3.184,0,0,0,3.93-1.379l12.886-21.684a3.1,3.1,0,0,0-.773-4.011ZM64.955,86.6c-12.435,0-22.55-9.839-22.55-21.935S52.52,42.735,64.955,42.735,87.5,52.575,87.5,64.67,77.389,86.6,64.955,86.6Z" transform="translate(-2.271 -2)"/>
        </g>
        <g id="Thin-L" transform="translate(794.97 1458.54)">
          <path id="Path_36-14" data-name="Path 36" d="M0,0H122.9V122.9H0Z" fill="none"/>
          <path id="Path_37-14" data-name="Path 37" d="M110.673,69.472a46.6,46.6,0,0,0,.442-6.022,46.606,46.606,0,0,0-.442-6.022L124,47.289a3.043,3.043,0,0,0,.758-3.933L112.126,22.094a3.218,3.218,0,0,0-3.854-1.352l-15.73,6.145a46.483,46.483,0,0,0-10.676-6.022l-2.4-16.284A3.055,3.055,0,0,0,76.369,2H51.1A3.055,3.055,0,0,0,48,4.581L45.6,20.865a48.881,48.881,0,0,0-10.676,6.022L19.2,20.742a3.122,3.122,0,0,0-3.854,1.352L2.709,43.356a2.975,2.975,0,0,0,.758,3.933L16.8,57.428a47.427,47.427,0,0,0-.442,6.022,47.427,47.427,0,0,0,.442,6.022L3.467,79.611a3.043,3.043,0,0,0-.758,3.933l12.635,21.262a3.218,3.218,0,0,0,3.854,1.352l15.73-6.145A46.483,46.483,0,0,0,45.6,106.035L48,122.319a3.055,3.055,0,0,0,3.1,2.581h25.27a3.055,3.055,0,0,0,3.1-2.581l2.4-16.284a48.881,48.881,0,0,0,10.676-6.022l15.73,6.145a3.122,3.122,0,0,0,3.854-1.352L124.76,83.544A3.043,3.043,0,0,0,124,79.611ZM63.735,84.957c-12.193,0-22.111-9.648-22.111-21.508s9.918-21.507,22.111-21.507S85.845,51.59,85.845,63.45,75.927,84.957,63.735,84.957Z" transform="translate(-2.271 -2)"/>
        </g>
        <g id="Ultralight-L" transform="translate(498.9 1459.13)">
          <path id="Path_36-15" data-name="Path 36" d="M0,0H121.63V121.63H0Z" fill="none"/>
          <path id="Path_37-15" data-name="Path 37" d="M109.553,68.775a46.124,46.124,0,0,0,.438-5.96,46.125,46.125,0,0,0-.438-5.96l13.192-10.034a3.012,3.012,0,0,0,.75-3.892l-12.5-21.042a3.185,3.185,0,0,0-3.814-1.338L91.609,26.63a46,46,0,0,0-10.566-5.96L78.667,4.554A3.023,3.023,0,0,0,75.6,2H50.6a3.023,3.023,0,0,0-3.064,2.554L45.156,20.67A48.376,48.376,0,0,0,34.59,26.63L19.022,20.549a3.09,3.09,0,0,0-3.814,1.338L2.7,42.928a2.944,2.944,0,0,0,.75,3.892L16.646,56.855a46.937,46.937,0,0,0-.438,5.96,46.937,46.937,0,0,0,.438,5.96L3.454,78.809A3.012,3.012,0,0,0,2.7,82.7l12.5,21.042a3.185,3.185,0,0,0,3.814,1.338L34.59,99a46,46,0,0,0,10.566,5.96l2.376,16.116A3.023,3.023,0,0,0,50.6,123.63H75.6a3.023,3.023,0,0,0,3.064-2.554l2.376-16.116A48.376,48.376,0,0,0,91.609,99l15.568,6.081a3.09,3.09,0,0,0,3.814-1.338l12.5-21.042a3.012,3.012,0,0,0-.75-3.892ZM63.1,84.1c-12.067,0-21.882-9.548-21.882-21.285S51.033,41.53,63.1,41.53s21.882,9.548,21.882,21.285S75.166,84.1,63.1,84.1Z" transform="translate(-2.271 -2)"/>
        </g>
        <g id="Semibold-L" transform="translate(1978.25 1455.32)">
          <path id="Path_36-16" data-name="Path 36" d="M0,0H130.03V130.03H0Z" fill="none"/>
          <path id="Path_37-16" data-name="Path 37" d="M116.962,73.386a49.308,49.308,0,0,0,.468-6.371,49.309,49.309,0,0,0-.468-6.371l14.1-10.727a3.22,3.22,0,0,0,.8-4.161L118.5,23.26a3.4,3.4,0,0,0-4.077-1.43l-16.643,6.5a49.18,49.18,0,0,0-11.3-6.371L83.943,4.731A3.232,3.232,0,0,0,80.668,2H53.933a3.232,3.232,0,0,0-3.275,2.731L48.118,21.96a51.717,51.717,0,0,0-11.3,6.371l-16.643-6.5A3.3,3.3,0,0,0,16.1,23.26L2.734,45.755a3.148,3.148,0,0,0,.8,4.161l14.1,10.727a50.178,50.178,0,0,0-.468,6.371,50.178,50.178,0,0,0,.468,6.371L3.536,84.114a3.22,3.22,0,0,0-.8,4.161L16.1,110.77a3.4,3.4,0,0,0,4.077,1.43l16.643-6.5a49.179,49.179,0,0,0,11.3,6.371l2.54,17.229a3.232,3.232,0,0,0,3.275,2.731H80.668a3.232,3.232,0,0,0,3.275-2.731l2.54-17.229a51.716,51.716,0,0,0,11.3-6.371l16.643,6.5a3.3,3.3,0,0,0,4.077-1.43l13.368-22.5a3.22,3.22,0,0,0-.8-4.161ZM67.3,89.77c-12.9,0-23.394-10.207-23.394-22.755S54.4,44.26,67.3,44.26,90.694,54.467,90.694,67.015,80.2,89.77,67.3,89.77Z" transform="translate(-2.271 -2)"/>
        </g>
        <g id="Bold-L" transform="translate(2274.16 1454.64)">
          <path id="Path_36-17" data-name="Path 36" d="M0,0H131.64V131.64H0Z" fill="none"/>
          <path id="Path_37-17" data-name="Path 37" d="M118.382,74.27a49.919,49.919,0,0,0,.474-6.45,49.921,49.921,0,0,0-.474-6.45l14.278-10.86a3.26,3.26,0,0,0,.812-4.212L119.938,23.523a3.447,3.447,0,0,0-4.128-1.448L98.961,28.657a49.789,49.789,0,0,0-11.436-6.45L84.955,4.764A3.272,3.272,0,0,0,81.639,2H54.572a3.272,3.272,0,0,0-3.316,2.764L48.685,22.207a52.357,52.357,0,0,0-11.436,6.45L20.4,22.075a3.344,3.344,0,0,0-4.128,1.448L2.74,46.3a3.187,3.187,0,0,0,.812,4.212L17.829,61.37a50.8,50.8,0,0,0-.474,6.45,50.8,50.8,0,0,0,.474,6.45L3.552,85.131a3.26,3.26,0,0,0-.812,4.212l13.533,22.774a3.447,3.447,0,0,0,4.128,1.448l16.849-6.582a49.788,49.788,0,0,0,11.436,6.45l2.571,17.442a3.272,3.272,0,0,0,3.316,2.764H81.639a3.272,3.272,0,0,0,3.316-2.764l2.571-17.442a52.357,52.357,0,0,0,11.436-6.45l16.849,6.582a3.344,3.344,0,0,0,4.128-1.448l13.533-22.774a3.26,3.26,0,0,0-.812-4.212ZM68.106,90.857c-13.06,0-23.683-10.334-23.683-23.037S55.046,44.783,68.106,44.783,91.789,55.117,91.789,67.82,81.165,90.857,68.106,90.857Z" transform="translate(-2.271 -2)"/>
        </g>
        <g id="Heavy-L" transform="translate(2569.67 1453.61)">
          <path id="Path_36-18" data-name="Path 36" d="M0,0H134.03V133.98H0Z" fill="none"/>
          <path id="Path_37-18" data-name="Path 37" d="M120.49,75.555a50.786,50.786,0,0,0,.482-6.565,50.788,50.788,0,0,0-.482-6.565l14.537-11.053a3.317,3.317,0,0,0,.827-4.287L122.074,23.906a3.51,3.51,0,0,0-4.2-1.474l-17.155,6.7a50.7,50.7,0,0,0-11.643-6.565L86.456,4.814A3.331,3.331,0,0,0,83.08,2H55.522a3.331,3.331,0,0,0-3.376,2.814L49.528,22.566a53.313,53.313,0,0,0-11.643,6.565l-17.155-6.7a3.405,3.405,0,0,0-4.2,1.474L2.748,47.084a3.242,3.242,0,0,0,.827,4.287L18.112,62.425a51.683,51.683,0,0,0-.482,6.565,51.683,51.683,0,0,0,.482,6.565L3.575,86.608A3.317,3.317,0,0,0,2.748,90.9l13.779,23.179a3.51,3.51,0,0,0,4.2,1.474l17.155-6.7a50.7,50.7,0,0,0,11.643,6.565l2.618,17.752a3.331,3.331,0,0,0,3.376,2.814H83.08a3.331,3.331,0,0,0,3.376-2.814l2.618-17.752a53.313,53.313,0,0,0,11.643-6.565l17.155,6.7a3.405,3.405,0,0,0,4.2-1.474L135.853,90.9a3.317,3.317,0,0,0-.827-4.287ZM69.3,92.436c-13.3,0-24.113-10.517-24.113-23.447S56,45.543,69.3,45.543,93.414,56.061,93.414,68.99,82.6,92.436,69.3,92.436Z" transform="translate(-2.271 -2)"/>
        </g>
        <g id="settings" transform="translate(2865.33 1452.73)">
          <path id="Path_36-19" data-name="Path 36" d="M0,0H136.13V136.13H0Z" fill="none"/>
          <path id="Path_37-19" data-name="Path 37" d="M122.342,76.735a51.62,51.62,0,0,0,.49-6.67,51.622,51.622,0,0,0-.49-6.67l14.765-11.231a3.371,3.371,0,0,0,.84-4.356l-13.995-23.55a3.565,3.565,0,0,0-4.268-1.5l-17.424,6.806A51.487,51.487,0,0,0,90.434,22.9L87.775,4.859A3.384,3.384,0,0,0,84.346,2H56.356a3.384,3.384,0,0,0-3.429,2.859L50.268,22.9a54.142,54.142,0,0,0-11.826,6.67L21.019,22.76a3.458,3.458,0,0,0-4.268,1.5L2.756,47.808a3.3,3.3,0,0,0,.84,4.356L18.36,63.395a52.532,52.532,0,0,0-.49,6.67,52.532,52.532,0,0,0,.49,6.67L3.6,87.966a3.371,3.371,0,0,0-.84,4.356l13.995,23.55a3.565,3.565,0,0,0,4.268,1.5l17.424-6.806a51.486,51.486,0,0,0,11.826,6.67l2.659,18.037a3.384,3.384,0,0,0,3.429,2.859h27.99a3.384,3.384,0,0,0,3.429-2.859l2.659-18.037a54.143,54.143,0,0,0,11.826-6.67l17.424,6.806a3.458,3.458,0,0,0,4.268-1.5l13.995-23.55a3.371,3.371,0,0,0-.84-4.356ZM70.351,93.888C56.846,93.888,45.86,83.2,45.86,70.065S56.846,46.242,70.351,46.242,94.842,56.928,94.842,70.065,83.856,93.888,70.351,93.888Z" transform="translate(-2.271 -2)"/>
        </g>
      </g>
      <g id="Regular-S" transform="translate(1396.12 622.61)">
        <path id="Path_36-20" data-name="Path 36" d="M0,0H78.86V78.81H0Z" fill="none"/>
        <path id="Path_37-20" data-name="Path 37" d="M71.828,45.267a29.866,29.866,0,0,0,.284-3.862,29.867,29.867,0,0,0-.284-3.862l8.553-6.5a1.951,1.951,0,0,0,.486-2.522L72.76,14.885a2.066,2.066,0,0,0-2.473-.867l-10.093,3.94A29.831,29.831,0,0,0,53.343,14.1L51.8,3.655A1.96,1.96,0,0,0,49.817,2H33.6a1.96,1.96,0,0,0-1.986,1.655L30.076,14.1a31.37,31.37,0,0,0-6.851,3.862l-10.093-3.94a2,2,0,0,0-2.473.867L2.552,28.52a1.907,1.907,0,0,0,.486,2.522l8.553,6.5a30.393,30.393,0,0,0-.284,3.862,30.393,30.393,0,0,0,.284,3.862l-8.553,6.5a1.951,1.951,0,0,0-.486,2.522l8.107,13.634a2.066,2.066,0,0,0,2.473.867l10.093-3.94a29.832,29.832,0,0,0,6.851,3.862l1.54,10.442A1.96,1.96,0,0,0,33.6,80.81H49.817A1.96,1.96,0,0,0,51.8,79.155l1.54-10.442a31.37,31.37,0,0,0,6.851-3.862l10.093,3.94a2,2,0,0,0,2.473-.867L80.867,54.29a1.951,1.951,0,0,0-.486-2.522ZM41.71,55.2A14.009,14.009,0,0,1,27.522,41.4a14.193,14.193,0,0,1,28.375,0A14.009,14.009,0,0,1,41.71,55.2Z" transform="translate(-2.271 -2)"/>
      </g>
      <g id="Medium-S" transform="translate(1691.84 621.93)">
        <path id="Path_36-21" data-name="Path 36" d="M0,0H79.79V79.79H0Z" fill="none"/>
        <path id="Path_37-21" data-name="Path 37" d="M72.648,45.8a30.256,30.256,0,0,0,.287-3.91,30.257,30.257,0,0,0-.287-3.91L81.3,31.4a1.976,1.976,0,0,0,.492-2.553l-8.2-13.8a2.089,2.089,0,0,0-2.5-.878L60.877,18.157a30.178,30.178,0,0,0-6.931-3.91L52.387,3.676A1.983,1.983,0,0,0,50.378,2H33.972a1.983,1.983,0,0,0-2.01,1.676L30.4,14.248a31.735,31.735,0,0,0-6.931,3.91L13.26,14.168a2.027,2.027,0,0,0-2.5.878l-8.2,13.8A1.931,1.931,0,0,0,3.047,31.4L11.7,37.985a30.791,30.791,0,0,0-.287,3.91A30.791,30.791,0,0,0,11.7,45.8L3.047,52.387a1.976,1.976,0,0,0-.492,2.553l8.2,13.8a2.089,2.089,0,0,0,2.5.878l10.213-3.989a30.178,30.178,0,0,0,6.931,3.91l1.559,10.572a1.983,1.983,0,0,0,2.01,1.676H50.378a1.983,1.983,0,0,0,2.01-1.676l1.559-10.572a31.735,31.735,0,0,0,6.931-3.91L71.09,69.622a2.027,2.027,0,0,0,2.5-.878l8.2-13.8a1.976,1.976,0,0,0-.492-2.553ZM42.175,55.858A14.179,14.179,0,0,1,27.82,41.895a14.36,14.36,0,0,1,28.71,0A14.179,14.179,0,0,1,42.175,55.858Z" transform="translate(-2.271 -2)"/>
      </g>
      <g id="Light-S" transform="translate(1112.41 623.49)">
        <path id="Path_36-22" data-name="Path 36" d="M0,0H77.39V77.39H0Z" fill="none"/>
        <path id="Path_37-22" data-name="Path 37" d="M70.531,44.487a29.347,29.347,0,0,0,.278-3.792,29.348,29.348,0,0,0-.278-3.792l8.394-6.385a1.916,1.916,0,0,0,.477-2.476L71.446,14.653A2.026,2.026,0,0,0,69.02,13.8l-9.905,3.869a29.27,29.27,0,0,0-6.723-3.792L50.88,3.625A1.924,1.924,0,0,0,48.931,2H33.018a1.924,1.924,0,0,0-1.949,1.625L29.557,13.879a30.78,30.78,0,0,0-6.723,3.792L12.929,13.8a1.966,1.966,0,0,0-2.427.851L2.546,28.042a1.873,1.873,0,0,0,.477,2.476L11.418,36.9a29.864,29.864,0,0,0-.278,3.792,29.864,29.864,0,0,0,.278,3.792L3.024,50.872a1.916,1.916,0,0,0-.477,2.476L10.5,66.737a2.027,2.027,0,0,0,2.427.851l9.905-3.869a29.271,29.271,0,0,0,6.723,3.792l1.512,10.254a1.924,1.924,0,0,0,1.949,1.625H48.931a1.924,1.924,0,0,0,1.949-1.625l1.512-10.254a30.78,30.78,0,0,0,6.723-3.792l9.905,3.869a1.966,1.966,0,0,0,2.427-.851L79.4,53.348a1.916,1.916,0,0,0-.477-2.476ZM40.974,54.238A13.752,13.752,0,0,1,27.051,40.695a13.928,13.928,0,0,1,27.846,0A13.752,13.752,0,0,1,40.974,54.238Z" transform="translate(-2.271 -2)"/>
      </g>
      <g id="Thin-S" transform="translate(818.7 624.61)">
        <path id="Path_36-23" data-name="Path 36" d="M0,0H75.44V75.44H0Z" fill="none"/>
        <path id="Path_37-23" data-name="Path 37" d="M68.811,43.417a28.607,28.607,0,0,0,.271-3.7,28.61,28.61,0,0,0-.271-3.7L76.994,29.8a1.868,1.868,0,0,0,.465-2.414L69.7,14.334a1.975,1.975,0,0,0-2.365-.83l-9.656,3.772a28.533,28.533,0,0,0-6.554-3.7l-1.474-10A1.875,1.875,0,0,0,47.755,2H32.244a1.875,1.875,0,0,0-1.9,1.584l-1.474,10a30,30,0,0,0-6.554,3.7L12.661,13.5a1.916,1.916,0,0,0-2.365.83L2.54,27.386A1.826,1.826,0,0,0,3,29.8l8.182,6.224a29.112,29.112,0,0,0-.271,3.7,29.112,29.112,0,0,0,.271,3.7L3,49.64a1.868,1.868,0,0,0-.465,2.414L10.3,65.106a1.975,1.975,0,0,0,2.365.83l9.656-3.772a28.533,28.533,0,0,0,6.554,3.7l1.474,10a1.875,1.875,0,0,0,1.9,1.584H47.755a1.875,1.875,0,0,0,1.9-1.584l1.474-10a30.005,30.005,0,0,0,6.554-3.7l9.656,3.772a1.916,1.916,0,0,0,2.365-.83l7.756-13.051a1.868,1.868,0,0,0-.465-2.414ZM40,52.922a13.406,13.406,0,0,1-13.572-13.2,13.578,13.578,0,0,1,27.145,0A13.406,13.406,0,0,1,40,52.922Z" transform="translate(-2.271 -2)"/>
      </g>
      <g id="Semibold-S" transform="translate(1982.55 621.39)">
        <path id="Path_36-24" data-name="Path 36" d="M0,0H80.47V80.47H0Z" fill="none"/>
        <path id="Path_37-24" data-name="Path 37" d="M73.248,46.178a30.514,30.514,0,0,0,.29-3.943,30.517,30.517,0,0,0-.29-3.943l8.728-6.639a1.993,1.993,0,0,0,.5-2.575L74.2,15.157a2.107,2.107,0,0,0-2.523-.885L61.377,18.3a30.435,30.435,0,0,0-6.99-3.943L52.814,3.69A2,2,0,0,0,50.788,2H34.242a2,2,0,0,0-2.027,1.69L30.643,14.352a32.005,32.005,0,0,0-6.99,3.943l-10.3-4.023a2.044,2.044,0,0,0-2.523.885L2.557,29.078a1.948,1.948,0,0,0,.5,2.575l8.728,6.639a31.053,31.053,0,0,0-.29,3.943,31.053,31.053,0,0,0,.29,3.943L3.054,52.817a1.993,1.993,0,0,0-.5,2.575L10.83,69.313a2.107,2.107,0,0,0,2.523.885l10.3-4.023a30.435,30.435,0,0,0,6.99,3.943L32.215,80.78a2,2,0,0,0,2.027,1.69H50.788a2,2,0,0,0,2.027-1.69l1.572-10.662a32.005,32.005,0,0,0,6.99-3.943l10.3,4.023a2.044,2.044,0,0,0,2.523-.885l8.273-13.921a1.993,1.993,0,0,0-.5-2.575ZM42.515,56.317A14.3,14.3,0,0,1,28.037,42.235a14.483,14.483,0,0,1,28.955,0A14.3,14.3,0,0,1,42.515,56.317Z" transform="translate(-2.271 -2)"/>
      </g>
      <g id="Bold-S" transform="translate(2301.26 620.71)">
        <path id="Path_36-25" data-name="Path 36" d="M0,0H81.4V81.4H0Z" fill="none"/>
        <path id="Path_37-25" data-name="Path 37" d="M74.068,46.689a30.866,30.866,0,0,0,.293-3.989,30.867,30.867,0,0,0-.293-3.989L82.9,32a2.016,2.016,0,0,0,.5-2.6L75.031,15.309a2.131,2.131,0,0,0-2.552-.9L62.06,18.483a30.787,30.787,0,0,0-7.071-3.989L53.4,3.709A2.023,2.023,0,0,0,51.348,2H34.612a2.023,2.023,0,0,0-2.05,1.709l-1.59,10.785A32.375,32.375,0,0,0,23.9,18.483l-10.419-4.07a2.068,2.068,0,0,0-2.552.9L2.561,29.391a1.97,1.97,0,0,0,.5,2.6l8.829,6.715A31.412,31.412,0,0,0,11.6,42.7a31.412,31.412,0,0,0,.293,3.989L3.063,53.4a2.016,2.016,0,0,0-.5,2.6l8.368,14.082a2.132,2.132,0,0,0,2.552.9L23.9,66.916a30.786,30.786,0,0,0,7.071,3.989l1.59,10.785a2.023,2.023,0,0,0,2.05,1.709H51.348a2.023,2.023,0,0,0,2.05-1.709l1.59-10.785a32.375,32.375,0,0,0,7.071-3.989l10.419,4.07a2.068,2.068,0,0,0,2.552-.9L83.4,56.009a2.016,2.016,0,0,0-.5-2.6ZM42.98,56.945A14.465,14.465,0,0,1,28.335,42.7a14.65,14.65,0,0,1,29.289,0A14.465,14.465,0,0,1,42.98,56.945Z" transform="translate(-2.271 -2)"/>
      </g>
      <g id="Heavy-S" transform="translate(2589.97 619.68)">
        <path id="Path_36-26" data-name="Path 36" d="M0,0H82.76V82.76H0Z" fill="none"/>
        <path id="Path_37-26" data-name="Path 37" d="M75.268,47.435a31.382,31.382,0,0,0,.3-4.055,31.384,31.384,0,0,0-.3-4.055L84.244,32.5a2.049,2.049,0,0,0,.51-2.648L76.246,15.531a2.167,2.167,0,0,0-2.595-.91L63.059,18.759A31.3,31.3,0,0,0,55.869,14.7L54.253,3.738A2.057,2.057,0,0,0,52.168,2H35.152a2.057,2.057,0,0,0-2.084,1.738L31.451,14.7a32.916,32.916,0,0,0-7.189,4.055L13.669,14.621a2.1,2.1,0,0,0-2.595.91L2.566,29.849a2,2,0,0,0,.51,2.648l8.976,6.828a31.936,31.936,0,0,0-.3,4.055,31.937,31.937,0,0,0,.3,4.055L3.076,54.263a2.049,2.049,0,0,0-.51,2.648l8.508,14.317a2.167,2.167,0,0,0,2.595.91L24.261,68a31.3,31.3,0,0,0,7.189,4.055l1.617,10.966a2.057,2.057,0,0,0,2.084,1.738H52.168a2.057,2.057,0,0,0,2.084-1.738l1.617-10.966A32.916,32.916,0,0,0,63.059,68l10.593,4.138a2.1,2.1,0,0,0,2.595-.91l8.508-14.317a2.049,2.049,0,0,0-.51-2.648ZM43.66,57.863A14.707,14.707,0,0,1,28.771,43.38a14.895,14.895,0,0,1,29.779,0A14.707,14.707,0,0,1,43.66,57.863Z" transform="translate(-2.271 -2)"/>
      </g>
      <g id="Black-S" transform="translate(2890.68 618.8)">
        <path id="Path_36-27" data-name="Path 36" d="M0,0H83.98V83.98H0Z" fill="none"/>
        <path id="Path_37-27" data-name="Path 37" d="M76.344,48.1a31.845,31.845,0,0,0,.3-4.115,31.845,31.845,0,0,0-.3-4.115l9.108-6.928a2.08,2.08,0,0,0,.518-2.687L77.337,15.731a2.2,2.2,0,0,0-2.633-.924l-10.749,4.2a31.763,31.763,0,0,0-7.3-4.115L55.019,3.764A2.088,2.088,0,0,0,52.9,2H35.637a2.088,2.088,0,0,0-2.115,1.764l-1.64,11.127a33.4,33.4,0,0,0-7.3,4.115l-10.749-4.2a2.133,2.133,0,0,0-2.633.924L2.57,30.259a2.033,2.033,0,0,0,.518,2.687L12.2,39.875a32.407,32.407,0,0,0-.3,4.115,32.407,32.407,0,0,0,.3,4.115L3.088,55.033a2.08,2.08,0,0,0-.518,2.687L11.2,72.249a2.2,2.2,0,0,0,2.633.924l10.749-4.2a31.763,31.763,0,0,0,7.3,4.115l1.64,11.127a2.088,2.088,0,0,0,2.115,1.764H52.9a2.088,2.088,0,0,0,2.115-1.764l1.64-11.127a33.4,33.4,0,0,0,7.3-4.115l10.749,4.2a2.133,2.133,0,0,0,2.633-.924L85.97,57.721a2.08,2.08,0,0,0-.518-2.687ZM44.27,58.686a14.923,14.923,0,0,1-15.109-14.7,15.115,15.115,0,0,1,30.218,0A14.923,14.923,0,0,1,44.27,58.686Z" transform="translate(-2.271 -2)"/>
      </g>
    </g>
  </g>
</svg>
